<svg height="128" id="Layer_1" version="1.1" width="128" xml:space="preserve" xmlns="http://www.w3.org/2000/svg"><path d="m123.316 100.688-25.043-25.04C101.91 68.547 104 60.523 104 52c0-28.727-23.281-52-52-52C23.285 0 0 23.273 0 52s23.285 52 52 52c8.523 0 16.547-2.094 23.649-5.727l25.039 25.039C103.813 126.438 107.906 128 112 128s8.188-1.563 11.316-4.688c6.247-6.242 6.247-16.374 0-22.624zm-5.656 16.968c-1.512 1.508-3.523 2.344-5.66 2.344s-4.148-.828-5.656-2.344L77.188 88.5l-5.184 2.648C65.715 94.367 58.984 96 52 96 27.738 96 8 76.266 8 52S27.738 8 52 8s44 19.734 44 44c0 6.992-1.633 13.719-4.848 20l-2.656 5.188 4.121 4.117 25.039 25.039A7.944 7.944 0 0 1 120 112a7.926 7.926 0 0 1-2.34 5.656z" fill="#B0BEC5"/><path d="M52 24c15.438 0 28 12.563 28 28S67.438 80 52 80 24 67.437 24 52s12.562-28 28-28m0-8c-19.883 0-36 16.117-36 36 0 19.875 16.117 36 36 36s36-16.125 36-36c0-19.883-16.117-36-36-36z" fill="#03A9F4"/></svg>